<svg id="Layer_1" data-name="Layer 1" xmlns="http://www.w3.org/2000/svg" viewBox="0 0 505.24 120.29"><defs><style>.cls-1{isolation:isolate;font-size:72px;fill:#f2f2f2;font-family:Poppins-Black, Poppins;font-weight:800;}.cls-2{fill:#57ad7b;}.cls-3{fill:#80cca0;}.cls-4{fill:#60be88;}.cls-5{fill:#2a795d;}.cls-6{fill:#2a795e;}.cls-7{fill:#58ad7b;}.cls-8{fill:#29795d;}.cls-9{fill:#60be87;}.cls-10{fill:#2b7a5e;}.cls-11{fill:#7fcb9f;}.cls-12{fill:#2c7c5f;}</style></defs><text class="cls-1" transform="translate(0 75.15)">CSGOCA$H</text><path class="cls-2" d="M1135.86,126c-1.52,2.05-3,4.1-4.56,6.14-.5.67-1,1.29-1.58,1.94l-.41-.29c-.48-.76-.94-1.54-1.44-2.29q-2.74-4.14-5.52-8.26a2.31,2.31,0,0,0-.54-.45,4.13,4.13,0,0,0-.3-.68c-1.44-2.17-2.88-4.34-4.34-6.5a2.8,2.8,0,0,0-3.76-1.2,3.43,3.43,0,0,0-.54.37l-4.51,3.07c-.83.58-1.64,1.17-2.46,1.76a5.75,5.75,0,0,0-.87.41c-2.32,1.54-4.62,3.1-6.94,4.66l-12.62,8.46c-.9.6-1.84,1.14-2.76,1.7q4.3-5.52,8.62-11,7.41-9.47,14.86-18.91a9.21,9.21,0,0,1,1.6-1.32h1.38c.52.34,1.07.65,1.57,1q11.67,9.11,23.35,18.2a4.57,4.57,0,0,1,1.77,2.27Z" transform="translate(-630.62 -103.58)"/><path class="cls-3" d="M1082.71,134.81c.92-.56,1.86-1.1,2.76-1.7q6.32-4.22,12.62-8.46c2.32-1.56,4.62-3.12,6.94-4.66a5.75,5.75,0,0,1,.87-.41,26.06,26.06,0,0,0,2.19,2.39,11.72,11.72,0,0,0,8.85,2.6l8.31,12.38a2.63,2.63,0,0,0,.54.46,1.42,1.42,0,0,1-.11.35,11.8,11.8,0,0,0-1,8.94c-.72.47-1.44.93-2.15,1.41l-18.43,12.34-11.63,7.75-8,5.36-.56-.38a11.16,11.16,0,0,0-8.87-1.87,28.47,28.47,0,0,0-4.29,1.63c-.24-.31-.5-.62-.72-.95q-3.12-4.63-6.23-9.28a7.14,7.14,0,0,1-.37-.73,5,5,0,0,1,.52-.51,11.63,11.63,0,0,0,2.87-15,4.1,4.1,0,0,0-.5-.52L1082,135.43A6.56,6.56,0,0,0,1082.71,134.81Zm27.85,13.08a14.27,14.27,0,1,0-14.3,14.24h0A14.2,14.2,0,0,0,1110.56,148Zm-31,12.14a1.22,1.22,0,0,0-1.12-1.32,1.24,1.24,0,0,0-.75.19c-1.83,1.19-3.64,2.41-5.45,3.64a1.15,1.15,0,0,0-.47,1.56l.06.09a1.18,1.18,0,0,0,1.63.37l.11-.08c1.8-1.18,3.6-2.38,5.37-3.61a2.77,2.77,0,0,0,.68-.84Zm41.37-27.67c0-1.21-1-1.74-1.81-1.2-1.86,1.19-3.68,2.44-5.5,3.69a1.16,1.16,0,1,0,1.27,2h0q2.77-1.8,5.49-3.69a2.58,2.58,0,0,0,.56-.75Z" transform="translate(-630.62 -103.58)"/><path class="cls-4" d="M1084.45,173.55l8-5.36,11.63-7.75,18.43-12.34c.71-.48,1.43-.94,2.15-1.41l1.58,3.09-14.45,9.7c-1.18.8-2.37,1.57-3.54,2.38a11.75,11.75,0,0,0-1,.87,4.13,4.13,0,0,0-.68.3q-3.94,2.61-7.89,5.25l-10.5,7.07a6.07,6.07,0,0,0-.65.59l-.78.32a3.84,3.84,0,0,0-.42-.77C1085.72,174.83,1085.08,174.2,1084.45,173.55Z" transform="translate(-630.62 -103.58)"/><path class="cls-5" d="M1126.27,149.79l-1.58-3.09a11.8,11.8,0,0,1,1-8.94,1.42,1.42,0,0,0,.11-.35l3.52-3.65.41.29c.13.24.23.5.38.73l4.07,6.06a2.75,2.75,0,0,1-.81,4.24Z" transform="translate(-630.62 -103.58)"/><path class="cls-6" d="M1066.3,145.93a4.1,4.1,0,0,1,.5.52,11.63,11.63,0,0,1-2.87,15,5,5,0,0,0-.52.51,4.35,4.35,0,0,1-.5-.55c-1.5-2.21-3-4.42-4.46-6.63a2.69,2.69,0,0,1,.25-3.8,2.46,2.46,0,0,1,.57-.38Z" transform="translate(-630.62 -103.58)"/><path class="cls-5" d="M1084.45,173.55c.63.64,1.27,1.27,1.87,1.94a3.84,3.84,0,0,1,.42.77c-2.45,1.65-4.9,3.32-7.38,4.94a2.59,2.59,0,0,1-3.61-.64l0,0c-1.67-2.42-3.28-4.87-4.91-7.31a1.4,1.4,0,0,1-.09-.29,28.47,28.47,0,0,1,4.29-1.63,11.16,11.16,0,0,1,8.87,1.87Z" transform="translate(-630.62 -103.58)"/><path class="cls-7" d="M1087.52,176a6.07,6.07,0,0,1,.65-.59l10.5-7.07q3.94-2.64,7.89-5.25a4.13,4.13,0,0,1,.68-.3l-6.45,8.28c-1.8,2.3-3.61,4.58-5.4,6.88-1.44,1.86-2.83,2-4.66.6Z" transform="translate(-630.62 -103.58)"/><path class="cls-8" d="M1116.94,124.55a11.72,11.72,0,0,1-8.85-2.6,26.06,26.06,0,0,1-2.19-2.39c.82-.59,1.63-1.18,2.46-1.76l4.51-3.07a2.78,2.78,0,0,1,3.93.29,2.73,2.73,0,0,1,.37.54c1.46,2.16,2.9,4.33,4.34,6.5a4.13,4.13,0,0,1,.3.68A15.16,15.16,0,0,1,1116.94,124.55Z" transform="translate(-630.62 -103.58)"/><path class="cls-9" d="M1116.94,124.55a15.16,15.16,0,0,0,4.87-1.81,2.31,2.31,0,0,1,.54.45q2.78,4.13,5.52,8.26c.5.75,1,1.53,1.44,2.29l-3.52,3.65a2.63,2.63,0,0,1-.54-.46Z" transform="translate(-630.62 -103.58)"/><path class="cls-8" d="M1110.56,147.89a14.27,14.27,0,1,1-14.24-14.3h.09A14.22,14.22,0,0,1,1110.56,147.89Zm-10.5,7.88c1,1.19,1.43,1.41,2,.91,1.15-.93.16-1.76-.22-2.57.25-.37.49-.7.7-1.05a5.25,5.25,0,0,0-1.64-7,4.56,4.56,0,0,0-4-.44.82.82,0,0,1-1.08-.38l0-.05c-.55-.91-1.17-1.78-1.76-2.67-.14-.22-.24-.46-.42-.81a7.93,7.93,0,0,0,1.27-.06,1.22,1.22,0,0,0,1.24-1.11,1.09,1.09,0,0,0-1-1.21h0a4.89,4.89,0,0,0-1.94.15c-.7.21-1.15.21-1.56-.49a1,1,0,0,0-1.35-.42l-.18.12a1.08,1.08,0,0,0-.44,1.46.75.75,0,0,0,.07.12,1.34,1.34,0,0,1,0,1.77,4.11,4.11,0,0,0,0,4.47,3.44,3.44,0,0,0,3.63,2,2.63,2.63,0,0,1,3.08,1.66,30.48,30.48,0,0,0,1.85,2.78c.11.16.19.35.38.71-.79.13-1.47.28-2.15.35a1.29,1.29,0,0,0-1.29,1.23,1.13,1.13,0,0,0,1.18,1.08h.12C1097.62,156.2,1098.78,156,1100.06,155.77Z" transform="translate(-630.62 -103.58)"/><path class="cls-10" d="M1079.62,160a2.7,2.7,0,0,1-.62.84c-1.77,1.23-3.57,2.43-5.37,3.61a1.18,1.18,0,0,1-1.66-.18.44.44,0,0,1-.08-.11,1.14,1.14,0,0,1,.32-1.59l.09-.06c1.81-1.23,3.62-2.45,5.45-3.64a1.22,1.22,0,0,1,1.68.38A1.16,1.16,0,0,1,1079.62,160Z" transform="translate(-630.62 -103.58)"/><path class="cls-6" d="M1120.94,132.36a2.39,2.39,0,0,1-.55.75q-2.72,1.89-5.49,3.69a1.16,1.16,0,1,1-1.27-2c1.82-1.25,3.64-2.5,5.5-3.69C1120,130.62,1120.92,131.15,1120.94,132.36Z" transform="translate(-630.62 -103.58)"/><path class="cls-11" d="M1100.06,155.77c-1.28.2-2.44.43-3.6.55a1.14,1.14,0,0,1-1.29-.95s0-.08,0-.12a1.29,1.29,0,0,1,1.29-1.23c.68-.07,1.36-.22,2.15-.35-.19-.36-.27-.55-.38-.71-.62-.93-1.33-1.8-1.85-2.78a2.63,2.63,0,0,0-3.08-1.66,3.44,3.44,0,0,1-3.63-2,4.11,4.11,0,0,1,0-4.47c.44-.67.55-1.11,0-1.77a1.09,1.09,0,0,1,.25-1.51l.12-.07a1,1,0,0,1,1.41.12.94.94,0,0,1,.12.18c.41.7.86.7,1.56.49a4.89,4.89,0,0,1,1.94-.15,1.09,1.09,0,0,1,1,1.17v0a1.22,1.22,0,0,1-1.24,1.11,10.2,10.2,0,0,0-1.27.06c.18.35.28.59.42.81.59.89,1.21,1.76,1.76,2.67a.8.8,0,0,0,1,.45l0,0a4.56,4.56,0,0,1,4,.44,5.25,5.25,0,0,1,1.64,7c-.21.35-.45.68-.7,1.05.38.81,1.37,1.64.22,2.57C1101.49,157.18,1101.11,157,1100.06,155.77Zm-2.42-7.89,2.81,4.16a2.92,2.92,0,0,0-.08-3.33,2.35,2.35,0,0,0-2.75-.83Zm-5.92-4.6a2.21,2.21,0,0,0,.31,2.52,1.4,1.4,0,0,0,1.6.33Z" transform="translate(-630.62 -103.58)"/><path class="cls-12" d="M1097.62,147.88a2.35,2.35,0,0,1,2.73.83,2.92,2.92,0,0,1,.08,3.33Z" transform="translate(-630.62 -103.58)"/><path class="cls-12" d="M1091.72,143.28l1.91,2.85a1.4,1.4,0,0,1-1.6-.33A2.21,2.21,0,0,1,1091.72,143.28Z" transform="translate(-630.62 -103.58)"/></svg>